<?xml version="1.0" standalone="no"?>
<!DOCTYPE svg PUBLIC "-//W3C//DTD SVG 20010904//EN"
 "http://www.w3.org/TR/2001/REC-SVG-20010904/DTD/svg10.dtd">
<svg version="1.0" xmlns="http://www.w3.org/2000/svg"
 width="326.000000pt" height="333.000000pt" viewBox="0 0 326.000000 333.000000"
 preserveAspectRatio="xMidYMid meet">
<metadata>
Created by potrace 1.11, written by Peter Selinger 2001-2013
</metadata>
<g transform="translate(0.000000,333.000000) scale(0.100000,-0.100000)"
fill="#000000" stroke="none">
<path d="M1493 3284 c3 -3 20 -13 39 -22 l33 -17 0 -155 0 -154 -25 -13 c-22
-11 -18 -13 45 -12 45 1 61 3 45 8 -25 7 -25 7 -28 145 l-3 138 122 -148 c67
-82 125 -150 130 -152 5 -2 10 79 11 179 l3 183 25 13 c22 11 18 13 -45 12
-51 0 -64 -3 -48 -9 12 -5 26 -18 32 -29 12 -22 15 -241 4 -241 -5 0 -59 63
-122 140 l-115 140 -55 0 c-30 0 -52 -3 -48 -6z"/>
<path d="M1689 2788 c0 -2 -10 -39 -22 -83 l-22 -79 -45 -8 c-248 -44 -410
-121 -563 -267 -160 -153 -260 -348 -291 -565 l-12 -80 -87 -19 c-48 -11 -87
-23 -87 -27 0 -4 40 -18 89 -30 l88 -22 7 -67 c12 -138 78 -311 166 -441 148
-217 370 -358 645 -409 l89 -16 22 -75 c11 -40 25 -75 31 -77 6 -2 19 31 30
74 l19 78 89 12 c183 26 338 93 481 207 192 154 321 383 357 633 l12 87 70 20
c39 11 72 21 75 23 9 8 -26 22 -86 33 l-61 12 -7 62 c-23 226 -167 487 -351
635 -142 114 -291 179 -480 210 l-100 17 -19 82 c-10 45 -22 82 -27 82 -5 0
-9 -1 -10 -2z m11 -595 c0 -290 -4 -523 -8 -518 -5 6 -46 88 -92 183 l-83 174
88 344 c48 189 90 344 91 344 2 0 4 -237 4 -527z m-90 297 c0 -12 -111 -434
-115 -438 -2 -2 -83 37 -181 87 -99 49 -181 88 -183 85 -3 -2 35 -85 84 -184
49 -99 87 -181 84 -183 -6 -7 -433 -117 -436 -113 -6 6 26 153 46 210 90 256
336 472 606 531 75 17 95 18 95 5z m318 -16 c72 -18 204 -81 279 -132 68 -47
167 -147 213 -215 52 -79 107 -206 126 -294 9 -46 15 -86 11 -89 -5 -6 -453
103 -466 112 -2 2 38 80 88 175 51 94 90 174 87 176 -3 3 -86 -32 -186 -77
-99 -46 -182 -81 -184 -79 -1 2 -26 96 -55 209 -29 113 -55 213 -58 224 -5 17
-1 18 42 12 25 -4 72 -14 103 -22z m42 -550 l-255 -256 180 90 180 89 340 -93
340 -93 -522 0 c-353 -1 -523 2 -523 9 0 6 42 90 94 186 l93 176 159 73 c87
40 161 74 164 74 3 1 -110 -114 -250 -255z m-304 -242 c-2 -2 -77 35 -166 81
l-163 85 -83 156 c-46 86 -84 159 -84 162 0 3 112 -104 250 -237 137 -134 248
-245 246 -247z m-151 -117 c-99 -52 -185 -95 -191 -95 -16 0 -645 168 -669
179 -13 6 177 10 510 10 l530 0 -180 -94z m378 -9 l166 -88 86 -164 c47 -90
85 -167 85 -171 0 -4 -117 109 -261 252 -144 143 -260 255 -258 249 2 -6 40
-86 83 -178 l80 -166 -86 -343 -86 -342 -1 516 c-1 284 2 519 6 523 4 3 9 5
13 4 3 -2 81 -43 173 -92z m-305 -93 l-100 -178 -145 -75 c-80 -41 -150 -77
-157 -79 -6 -2 104 112 244 253 140 141 256 256 257 256 0 0 -44 -80 -99 -177z
m972 95 c0 -44 -40 -188 -69 -253 -99 -217 -290 -390 -514 -463 -112 -37 -203
-51 -195 -31 3 8 29 113 58 234 29 121 54 222 56 224 1 1 84 -40 184 -94 100
-53 184 -94 187 -92 2 3 -37 87 -87 187 -50 100 -90 184 -88 185 3 3 447 123
461 124 4 1 7 -9 7 -21z m-1476 -44 c116 -31 212 -57 214 -59 2 -2 -36 -84
-84 -184 -48 -100 -85 -183 -82 -186 3 -3 83 38 178 90 96 52 176 92 179 89 7
-7 121 -457 117 -462 -9 -8 -137 22 -206 49 -219 84 -422 297 -494 519 -19 58
-46 173 -46 197 0 6 14 3 224 -53z"/>
<path d="M53 1838 c16 -15 44 -78 81 -183 62 -174 69 -190 83 -182 5 4 23 54
39 111 15 58 31 102 35 98 3 -4 20 -50 38 -102 18 -52 36 -99 40 -103 7 -7
131 307 131 329 0 4 10 18 22 31 l21 23 -53 0 c-53 0 -54 0 -31 -16 18 -13 21
-22 16 -43 -11 -45 -78 -221 -84 -221 -9 0 -81 213 -81 239 0 13 9 25 23 31
16 6 0 9 -58 9 -77 1 -79 0 -59 -17 34 -27 57 -81 51 -121 -8 -59 -38 -154
-46 -144 -12 13 -81 220 -81 242 0 11 8 25 18 30 13 8 -2 10 -56 11 l-73 0 24
-22z"/>
<path d="M2911 1819 c34 -13 39 -39 38 -188 -1 -139 -7 -163 -39 -172 -14 -4
42 -7 124 -6 l148 2 18 48 c21 55 14 61 -17 12 -26 -40 -48 -47 -124 -43 l-54
3 -3 83 -3 82 53 0 c60 0 69 -5 85 -40 10 -22 12 -16 12 45 0 68 0 69 -15 43
-13 -26 -19 -28 -74 -28 l-60 0 0 75 0 75 70 0 c68 0 72 -1 88 -30 23 -40 32
-38 32 10 l0 40 -152 -1 c-111 0 -146 -3 -127 -10z"/>
<path d="M1644 410 c-31 -12 -64 -59 -64 -91 0 -49 20 -75 86 -113 65 -38 114
-86 114 -112 0 -54 -110 -75 -155 -29 -14 13 -25 32 -25 42 0 10 -5 25 -10 33
-7 10 -10 -6 -10 -54 0 -59 2 -67 15 -56 11 9 22 9 46 1 75 -26 151 -2 175 54
24 59 -1 104 -86 153 -25 14 -57 37 -72 51 -48 43 -30 111 28 111 40 0 62 -17
89 -68 l24 -47 1 68 c0 61 -2 67 -15 53 -13 -13 -19 -13 -50 0 -38 16 -60 17
-91 4z"/>
</g>
</svg>
